# xmcd
#
# Track frame offsets: 
#        150
#        39978
#        164178
#        204006
#        218744
#        232042
#        246422
#        260734
#
# Disc length: 4340 seconds
#
# Revision: 0
# Processed by: cddbd v1.5.2PL0 Copyright (c) Steve Scherf et al.
# Submitted via: ExactAudioCopy v0.95a3
#
DISCID=7310f208
DTITLE=Jimi Hendrix - Studio 69 [CD13)
DYEAR=2004
DGENRE=Blues
TTITLE0=Untitled Instrumental Jam aka Jungle 1
TTITLE1=Untitled Instrumental Jam aka Keep On Groovin'
TTITLE2=Untitled Instrumental Jam aka Jungle 2
TTITLE3=Room Full Of Mirrors 1
TTITLE4=Room Full Of Mirrors 2
TTITLE5=Room Full Of Mirrors 3
TTITLE6=Room Full Of Mirrors 4
TTITLE7=Power Of Soul aka Paper Aeroplanes Takes 1-12
EXTD=
EXTT0=
EXTT1=
EXTT2=
EXTT3=
EXTT4=
EXTT5=
EXTT6=
EXTT7=
PLAYORDER=
